<?xml version="1.0" standalone="no"?>
<!DOCTYPE svg PUBLIC "-//W3C//DTD SVG 20010904//EN"
 "http://www.w3.org/TR/2001/REC-SVG-20010904/DTD/svg10.dtd">
<svg version="1.0" xmlns="http://www.w3.org/2000/svg"
 width="587.000000pt" height="587.000000pt" viewBox="0 0 587.000000 587.000000"
 preserveAspectRatio="xMidYMid meet">

<g transform="translate(0.000000,587.000000) scale(0.100000,-0.100000)"
fill="#000000" stroke="none">
<path d="M2902 5812 c-9 -6 -12 -35 -10 -108 l3 -99 40 0 40 0 3 99 c3 104 -1
116 -43 116 -11 0 -26 -4 -33 -8z"/>
<path d="M2630 5729 c-547 -63 -1089 -292 -1500 -632 -436 -362 -732 -803
-893 -1332 -64 -210 -132 -604 -108 -628 26 -26 38 3 51 115 108 999 750 1848
1690 2232 280 115 591 189 852 203 115 6 118 7 118 30 0 22 -3 23 -67 22 -38
-1 -102 -5 -143 -10z"/>
<path d="M3030 5717 c0 -23 3 -24 113 -30 205 -11 476 -69 697 -147 138 -49
403 -176 520 -250 577 -361 1003 -926 1199 -1590 40 -135 77 -322 93 -461 10
-94 15 -109 30 -109 24 0 24 49 -2 227 -157 1069 -950 1981 -1980 2276 -202
58 -480 106 -612 107 -54 0 -58 -2 -58 -23z"/>
<path d="M2795 5663 c-509 -31 -1038 -211 -1435 -491 -432 -304 -771 -722
-959 -1179 -55 -135 -113 -315 -131 -408 -6 -33 -18 -82 -26 -110 -14 -52 -44
-265 -44 -316 0 -24 4 -29 25 -29 39 0 65 -33 65 -83 0 -53 -20 -83 -61 -92
l-32 -7 6 -142 c11 -260 76 -534 194 -818 33 -79 50 -108 62 -108 19 0 81 -70
81 -92 0 -7 -28 -40 -62 -75 l-61 -62 38 -43 c21 -24 51 -56 67 -73 18 -18 26
-35 22 -45 -15 -36 -14 -47 11 -80 14 -19 47 -64 72 -100 338 -467 837 -833
1372 -1004 123 -40 272 -78 391 -101 98 -19 331 -45 398 -45 45 0 52 3 52 20
0 18 -7 20 -57 20 -150 1 -467 55 -673 115 -612 178 -1140 566 -1508 1107 -57
83 -36 96 25 15 21 -28 72 -97 113 -152 102 -137 367 -400 512 -509 224 -167
477 -303 728 -391 221 -77 506 -137 720 -150 47 -3 97 -8 113 -10 25 -4 27 -2
27 31 0 52 36 84 95 84 57 0 95 -32 95 -81 l0 -32 90 6 c818 58 1576 489 2055
1166 58 82 85 107 85 79 0 -21 -179 -254 -282 -369 -475 -524 -1132 -843
-1865 -905 -74 -6 -83 -9 -83 -27 0 -19 4 -19 83 -13 590 50 1117 253 1562
601 196 154 417 390 574 615 42 61 51 79 46 102 -6 25 2 37 58 96 l65 67 -59
64 c-32 35 -59 69 -59 76 0 7 24 35 54 63 39 35 62 67 80 110 116 274 186 576
202 870 l7 122 -25 0 c-43 0 -68 34 -68 94 0 59 19 86 59 86 23 0 23 2 17 68
-73 725 -449 1418 -1016 1874 -329 264 -736 456 -1140 538 -139 28 -300 50
-377 50 -62 0 -63 0 -63 -28 0 -15 -7 -38 -16 -50 -13 -19 -24 -22 -78 -22
-72 0 -87 10 -95 68 -6 36 -7 37 -46 35z m235 -323 c0 -5 -2 -10 -4 -10 -3 0
-8 5 -11 10 -3 6 -1 10 4 10 6 0 11 -4 11 -10z m-950 -184 c0 -3 -4 -8 -10
-11 -5 -3 -10 -1 -10 4 0 6 5 11 10 11 6 0 10 -2 10 -4z m2044 -17 c-3 -5 -10
-7 -15 -3 -5 3 -7 10 -3 15 3 5 10 7 15 3 5 -3 7 -10 3 -15z m3 -75 c-9 -9
-28 6 -21 18 4 6 10 6 17 -1 6 -6 8 -13 4 -17z m143 -99 l0 -125 -30 0 -30 0
0 115 c0 107 1 115 19 115 11 0 23 5 26 10 13 21 15 6 15 -115z m-140 34 c0
-5 -7 -9 -15 -9 -15 0 -20 12 -9 23 8 8 24 -1 24 -14z m-2610 -59 c0 -11 -2
-20 -4 -20 -2 0 -6 9 -9 20 -3 11 -1 20 4 20 5 0 9 -9 9 -20z m-81 -28 c-17
-6 -10 -60 9 -66 13 -4 13 -4 -3 -3 -15 2 -21 12 -26 42 -9 51 -1 72 16 48 8
-10 9 -19 4 -21z m-166 -14 c-5 -24 -2 -34 13 -45 19 -14 19 -15 -1 -11 -14 2
-21 14 -26 43 -7 42 -3 59 11 50 5 -3 7 -20 3 -37z m2857 32 c0 -5 -7 -10 -15
-10 -8 0 -15 5 -15 10 0 6 7 10 15 10 8 0 15 -4 15 -10z m-2930 -19 c-24 -19
-24 -20 -6 -40 24 -26 12 -27 -20 -2 l-24 19 26 21 c15 12 32 21 38 21 6 0 0
-9 -14 -19z m160 -26 c0 -18 6 -36 13 -38 6 -3 -1 -6 -18 -6 -21 -1 -26 2 -16
8 10 6 12 20 8 45 -3 22 -2 34 4 31 5 -4 9 -21 9 -40z m224 15 c-19 -37 -10
-54 25 -45 20 5 23 4 14 -6 -7 -7 -22 -9 -37 -5 -21 5 -26 13 -26 36 0 23 17
46 37 50 1 0 -5 -13 -13 -30z m121 -1 c9 -13 -23 -49 -43 -49 -9 0 -6 7 9 20
23 19 23 21 7 34 -10 7 -18 16 -18 20 0 9 37 -11 45 -25z m-75 -5 c0 -8 -4
-14 -10 -14 -5 0 -10 9 -10 21 0 11 5 17 10 14 6 -3 10 -13 10 -21z m-98 -41
c8 -10 4 -13 -18 -12 -16 0 -23 3 -16 6 6 2 13 19 13 36 2 28 2 29 6 7 3 -14
10 -31 15 -37z m2598 7 c0 -5 -7 -10 -15 -10 -8 0 -15 5 -15 10 0 6 7 10 15
10 8 0 15 -4 15 -10z m410 -70 l0 -40 -40 0 -40 0 0 40 0 40 40 0 40 0 0 -40z
m-3041 -70 c5 0 14 7 21 15 7 8 18 15 24 15 6 0 3 -5 -6 -11 -23 -13 -23 -25
2 -56 11 -15 18 -29 15 -32 -3 -3 -17 8 -30 24 -18 23 -25 26 -28 15 -3 -8 -8
-22 -10 -30 -3 -8 -5 21 -4 65 0 44 2 61 4 38 2 -24 8 -43 12 -43z m-205 25
c10 -25 22 -45 27 -45 5 0 9 20 9 45 0 25 5 45 11 45 6 0 9 -25 7 -70 -3 -85
-17 -90 -47 -19 -26 59 -35 57 -33 -6 1 -25 -2 -45 -8 -45 -6 0 -10 30 -10 70
0 84 18 94 44 25z m98 -7 c-18 -18 -14 -28 11 -28 31 0 40 10 24 28 -10 13 -9
14 3 10 8 -2 16 -14 18 -26 3 -19 -1 -22 -32 -22 -20 0 -36 -4 -36 -9 0 -17
29 -33 51 -26 14 5 19 4 15 -4 -11 -17 -63 -13 -70 5 -8 21 -8 69 1 77 3 4 11
7 17 7 6 0 5 -5 -2 -12z m210 0 c-17 -17 -15 -53 3 -68 32 -27 62 38 33 69
-11 11 -10 13 1 9 27 -8 35 -33 20 -64 -11 -22 -21 -29 -44 -29 -27 0 -30 4
-33 33 -4 40 3 62 20 62 9 0 9 -3 0 -12z m936 -125 l3 -121 -36 -4 c-19 -2
-40 1 -45 6 -13 13 -13 233 0 238 5 2 25 3 42 2 l33 -1 3 -120z m820 -7 l-3
-121 -35 0 -35 0 -3 122 c-3 120 -2 122 20 125 57 9 59 6 56 -126z m1278 100
c8 -46 0 -56 -47 -56 l-39 0 0 45 0 45 40 0 c37 0 39 -2 46 -34z m94 -106 l0
-40 -40 0 c-31 0 -40 4 -40 18 0 9 -3 27 -6 40 -6 20 -3 22 40 22 l46 0 0 -40z
m-3643 -2 c-3 -7 -13 -33 -22 -58 -19 -47 -35 -73 -42 -66 -7 6 50 136 60 136
5 0 7 -6 4 -12z m311 -44 c2 -26 8 -54 14 -61 8 -10 4 -13 -18 -13 -22 0 -25
3 -16 12 15 15 16 84 2 93 -14 9 -12 27 3 23 7 -3 13 -26 15 -54z m-245 8
c-19 -5 -17 -62 2 -62 8 0 15 -5 15 -11 0 -6 -10 -9 -22 -7 -19 2 -24 11 -29
48 -8 55 5 76 29 52 13 -12 14 -18 5 -20z m172 10 c17 -10 18 -11 3 -12 -10 0
-19 -4 -19 -10 -1 -5 -2 -16 -3 -22 -3 -19 15 -39 28 -31 8 4 8 3 0 -6 -20
-21 -42 -1 -46 42 -5 45 1 75 11 59 3 -5 15 -14 26 -20z m-346 -18 c-22 -23
-23 -26 -6 -35 9 -6 17 -15 17 -20 0 -6 -14 0 -31 12 l-32 22 29 24 c39 31 53
29 23 -3z m611 -20 c0 -7 -11 -19 -25 -28 -14 -9 -25 -12 -25 -7 0 6 8 14 17
20 17 9 17 10 0 28 -9 11 -17 23 -17 27 0 12 49 -28 50 -40z m-359 16 c2 -33
4 -38 12 -46 14 -14 7 -24 -18 -24 -14 0 -25 5 -25 10 0 6 5 10 10 10 15 0 12
57 -2 63 -8 3 -6 6 5 6 10 1 17 -7 18 -19z m273 4 c11 -28 6 -34 -25 -34 -26
0 -29 -2 -19 -14 6 -8 19 -12 28 -9 13 5 14 3 6 -7 -16 -16 -51 -4 -59 20 -14
44 53 87 69 44z m2811 -104 c3 -5 2 -10 -4 -10 -5 0 -13 5 -16 10 -3 6 -2 10
4 10 5 0 13 -4 16 -10z m223 -91 c-2 -6 -8 -10 -13 -10 -5 0 -11 4 -13 10 -2
6 4 11 13 11 9 0 15 -5 13 -11z m62 -4 c0 -8 -4 -15 -10 -15 -5 0 -10 7 -10
15 0 8 5 15 10 15 6 0 10 -7 10 -15z m70 0 c0 -8 -4 -15 -10 -15 -5 0 -10 7
-10 15 0 8 5 15 10 15 6 0 10 -7 10 -15z m70 7 c0 -13 -12 -22 -22 -16 -10 6
-1 24 13 24 5 0 9 -4 9 -8z m60 -7 c0 -8 -4 -15 -10 -15 -5 0 -10 7 -10 15 0
8 5 15 10 15 6 0 10 -7 10 -15z m70 0 c0 -8 -4 -15 -9 -15 -13 0 -22 16 -14
24 11 11 23 6 23 -9z m-1707 -2 c70 -4 107 -10 107 -18 0 -7 -13 -10 -32 -7
-18 2 -46 -2 -63 -9 l-30 -13 30 -3 c79 -8 95 -14 95 -32 0 -10 -7 -24 -15
-31 -20 -16 -19 -30 1 -30 11 0 14 5 10 16 -4 12 1 10 23 -5 16 -12 39 -24 51
-29 12 -4 -184 -8 -434 -7 -251 0 -450 2 -443 4 6 2 27 17 45 34 27 26 32 38
32 79 l0 47 88 4 c178 6 432 7 535 0z m-1153 -67 c0 -40 31 -83 74 -101 l31
-13 -25 -6 c-14 -3 -77 -15 -140 -27 -128 -24 -268 -73 -277 -97 -4 -8 1 -20
10 -27 10 -7 17 -15 17 -19 0 -12 -21 -5 -40 14 -16 16 -20 33 -20 89 0 67 1
70 37 101 20 18 52 39 72 47 29 13 232 70 254 72 4 1 7 -14 7 -33z m1872 19
c111 -23 222 -63 267 -96 l41 -29 0 -85 c0 -84 0 -85 -30 -100 -16 -9 -30 -11
-30 -6 0 6 9 15 20 21 26 14 25 32 -2 49 -34 21 -193 70 -267 82 -36 6 -90 14
-119 19 -79 12 -78 23 1 17 67 -5 99 5 52 17 -18 5 -25 13 -25 31 0 13 5 27
11 31 6 3 9 19 5 35 -3 16 -4 29 -1 29 2 0 37 -7 77 -15z m-1097 -155 c4 -7
54 -10 133 -9 70 1 150 -1 177 -4 28 -4 120 -9 205 -12 193 -8 393 -22 443
-31 23 -4 37 -2 37 4 0 15 55 25 99 17 31 -5 41 -12 46 -32 6 -25 8 -25 65
-20 58 5 60 4 85 -28 35 -46 36 -118 1 -140 -20 -13 -25 -27 -30 -88 -36 -393
-188 -1736 -201 -1774 -5 -14 -41 -18 -49 -5 -2 4 0 30 6 57 5 28 11 66 13 85
1 19 8 89 15 155 7 66 14 161 15 212 2 60 8 102 19 124 9 17 16 48 16 68 0 20
7 74 15 120 8 45 12 99 9 120 -3 20 1 76 10 125 10 60 12 94 6 107 -15 26 -12
62 6 88 18 25 14 82 -7 107 -15 19 -45 18 -53 -2 -10 -26 -7 -79 5 -91 6 -6 9
-17 7 -23 -3 -9 -8 -8 -20 3 -14 15 -16 13 -22 -21 -3 -20 -6 -59 -6 -87 0
-27 -5 -67 -10 -87 -9 -33 -7 -45 15 -93 15 -30 24 -61 22 -68 -3 -6 -10 3
-17 20 -15 40 -30 34 -30 -12 0 -18 -4 -55 -10 -82 -8 -44 -16 -105 -50 -375
-6 -48 -8 -99 -4 -113 3 -14 -1 -42 -9 -64 -9 -21 -14 -41 -11 -43 8 -8 -26
-211 -37 -224 -7 -9 -28 -12 -60 -10 -42 3 -49 1 -49 -14 0 -50 -33 -69 -44
-26 -6 26 2 84 14 101 4 6 10 38 12 73 4 51 2 62 -11 62 -14 0 -14 2 -1 10 17
11 9 23 -12 15 -17 -7 -48 -57 -48 -79 0 -25 -24 -19 -37 10 -10 21 -9 34 2
68 19 56 29 220 17 281 -6 27 -9 52 -7 54 7 6 94 -31 106 -45 8 -10 16 -11 31
-3 19 10 20 19 16 157 -2 83 -9 156 -15 167 -6 11 -23 45 -36 75 -39 84 -96
130 -177 140 l-45 5 40 26 c89 57 172 72 259 48 21 -6 42 -7 46 -2 4 4 11 44
14 88 7 97 22 215 29 235 10 30 18 242 8 236 -5 -4 -21 -1 -35 6 -24 10 -30 8
-57 -18 -26 -25 -30 -34 -26 -66 6 -43 2 -47 -48 -53 -35 -5 -72 14 -58 29 4
3 1 6 -4 6 -6 0 -14 -6 -16 -12 -4 -9 -6 -8 -6 2 -1 8 14 40 32 70 72 120 117
230 117 287 l0 34 42 -23 c50 -27 60 -53 25 -62 -13 -3 -29 -17 -35 -31 -16
-34 6 -78 47 -95 17 -7 28 -16 25 -21 -3 -5 0 -9 6 -9 7 0 10 6 7 14 -3 7 -1
18 4 23 12 12 14 52 5 81 -4 13 -4 21 2 20 15 -4 15 2 7 59 -6 46 -10 53 -38
63 l-32 12 27 8 c60 18 56 40 -9 40 -17 0 -60 6 -95 14 -95 22 -494 41 -773
37 -33 0 -72 -6 -88 -12 -20 -9 -31 -9 -41 0 -8 6 -18 11 -22 10 -5 -1 -47 0
-94 2 l-85 2 80 8 c114 10 144 14 151 22 10 10 22 9 29 -3z m1592 -22 c-3 -8
-6 -5 -6 6 -1 11 2 17 5 13 3 -3 4 -12 1 -19z m74 -1 c-10 -9 -11 -8 -5 6 3
10 9 15 12 12 3 -3 0 -11 -7 -18z m-1943 -6 c8 -4 -34 -11 -100 -15 -98 -5
-200 -19 -327 -45 l-35 -7 23 -21 c23 -21 23 -21 2 -28 -25 -7 -76 -111 -86
-172 -4 -24 -11 -46 -17 -49 -10 -6 -4 -135 8 -176 7 -22 30 -23 38 -2 5 13
17 15 66 10 34 -3 72 -13 85 -22 30 -19 31 -24 8 -18 -26 6 -42 -8 -49 -44 -6
-28 -3 -33 30 -53 27 -16 35 -26 30 -38 -15 -37 -25 -119 -19 -161 3 -25 6
-53 6 -62 0 -10 4 -20 10 -23 5 -4 9 -36 10 -73 0 -37 7 -116 15 -177 9 -60
18 -142 22 -182 4 -39 11 -75 15 -80 5 -4 33 -7 63 -6 30 1 54 -2 54 -7 0 -5
16 -14 35 -20 19 -6 35 -18 35 -26 0 -11 -4 -12 -19 -4 -31 16 -69 12 -81 -9
-26 -50 2 -89 71 -98 l42 -6 -7 43 c-6 36 -5 41 7 31 15 -12 17 -82 3 -113 -5
-10 -19 -18 -32 -18 -25 0 -33 -15 -11 -23 19 -7 6 -14 -35 -20 -27 -3 -38 -1
-38 8 0 21 -27 25 -44 6 -20 -22 -20 -59 -1 -226 8 -71 15 -154 15 -182 0 -50
-1 -53 -25 -53 -17 0 -25 -5 -24 -17 0 -11 3 -13 6 -5 2 6 16 12 29 12 20 0
24 5 24 30 l0 30 290 0 290 0 0 -30 c0 -27 3 -30 30 -30 27 0 30 -3 30 -30 0
-25 4 -30 25 -30 18 0 26 -7 31 -25 4 -16 13 -25 25 -25 18 0 19 -9 19 -139 0
-130 -1 -139 -20 -144 -13 -3 -20 -14 -20 -30 0 -21 -6 -26 -27 -29 -22 -2
-28 -8 -28 -28 l0 -25 -235 -5 c-212 -5 -235 -7 -238 -22 -3 -16 16 -18 260
-20 l263 -3 3 -102 3 -102 -28 -3 c-22 -2 -28 -8 -28 -28 l0 -25 -322 -3 -323
-2 0 24 c0 19 -6 25 -27 28 -20 2 -29 9 -31 25 -2 14 -11 23 -25 25 -14 2 -23
11 -25 26 -2 14 -10 22 -23 22 -17 0 -19 -8 -19 -75 l0 -75 -190 0 -190 0 0
25 c0 18 -7 28 -25 35 -18 7 -25 17 -25 35 0 20 -5 25 -25 25 -21 0 -25 5 -25
29 0 23 -5 30 -22 33 -16 2 -24 11 -26 30 -2 19 -10 28 -25 30 -17 2 -23 11
-25 35 -2 24 -9 33 -25 35 -13 2 -23 12 -27 28 -3 14 -10 25 -15 25 -21 0 -35
17 -35 41 0 17 -6 24 -19 24 -14 0 -21 8 -23 27 -2 20 -9 29 -25 31 -18 3 -23
10 -23 32 0 22 -5 29 -22 32 -16 2 -24 11 -26 30 -2 16 -11 30 -22 33 -12 4
-20 18 -23 38 -2 18 -5 -97 -5 -255 l-2 -287 -27 -3 c-24 -3 -28 -8 -31 -40
l-3 -38 -170 0 c-154 0 -169 2 -169 18 -1 9 -1 62 -2 117 l-1 100 37 3 36 3 0
370 0 369 40 0 c22 0 40 4 40 10 0 5 -39 11 -87 12 l-88 3 0 130 0 130 250 0
250 0 3 -37 c3 -33 7 -38 28 -38 21 0 24 -4 24 -39 0 -36 3 -40 28 -43 23 -3
27 -8 30 -40 2 -29 8 -37 25 -40 15 -2 23 -12 27 -33 4 -21 11 -31 28 -33 18
-3 22 -10 22 -38 0 -29 3 -34 24 -34 20 0 25 -6 28 -32 2 -25 9 -34 28 -38 19
-4 26 -13 28 -38 3 -26 8 -32 27 -32 19 0 24 -6 27 -32 2 -25 8 -33 23 -33 14
0 21 -8 23 -25 2 -14 8 -29 13 -34 5 -6 9 109 9 292 l0 302 175 0 175 0 0
-276 c0 -257 1 -275 18 -272 10 2 18 14 20 31 3 23 8 27 33 27 41 0 36 16 -5
17 -19 1 -39 4 -45 8 -7 4 -11 85 -11 240 l0 233 -40 7 c-22 4 -42 11 -46 16
-9 15 -51 10 -58 -6 -3 -9 -18 -15 -35 -15 -28 0 -30 3 -35 43 -34 264 -130
1069 -148 1232 -21 190 -25 211 -45 229 -36 31 -32 110 7 155 26 31 32 33 54
23 24 -11 66 -6 66 7 0 9 43 13 128 14 34 0 62 3 62 8 0 14 72 23 99 12 17 -6
68 -5 146 2 159 16 168 16 183 6z m2142 -7 c0 -8 -5 -12 -10 -9 -6 4 -8 11 -5
16 9 14 15 11 15 -7z m-3820 -39 c0 -32 -2 -35 -30 -35 -28 0 -30 3 -30 35 0
32 2 35 30 35 28 0 30 -3 30 -35z m445 -26 c9 -34 25 -81 35 -105 11 -24 22
-59 26 -79 l6 -36 -37 23 -38 22 -38 -22 c-49 -28 -58 -28 -97 4 -26 22 -32
34 -32 65 0 47 8 69 26 69 16 0 44 40 48 67 2 15 57 53 77 53 4 0 14 -27 24
-61z m1695 21 c0 -24 32 -42 68 -38 20 2 26 8 24 22 -3 16 -2 17 10 5 24 -23
28 -58 10 -69 -10 -5 -13 -10 -8 -10 5 0 3 -7 -4 -15 -6 -8 -9 -20 -5 -27 4
-7 1 -6 -7 3 -25 30 -67 51 -88 44 -12 -4 -19 -9 -16 -13 3 -3 -4 -10 -17 -16
-25 -13 -34 -54 -18 -85 9 -16 8 -20 -7 -23 -18 -5 -112 19 -125 31 -6 7 37
110 52 121 3 3 19 24 35 48 24 35 34 42 62 42 27 0 34 -4 34 -20z m-2050 -24
c0 -3 -4 -8 -10 -11 -5 -3 -10 -1 -10 4 0 6 5 11 10 11 6 0 10 -2 10 -4z
m3950 -15 c0 -5 -9 -7 -20 -4 -11 3 -20 7 -20 9 0 2 9 4 20 4 11 0 20 -4 20
-9z m-2436 -57 c3 -11 0 -28 -9 -40 -20 -27 -19 -50 5 -74 20 -20 20 -22 3
-50 -10 -18 -26 -30 -38 -30 -11 0 -33 -14 -49 -31 -35 -36 -55 -26 -33 17 8
16 27 67 42 114 15 47 32 89 36 95 5 5 9 17 9 28 0 16 2 16 14 5 7 -8 16 -23
20 -34z m2232 -6 c-1 -24 4 -33 18 -36 10 -2 23 2 28 10 8 10 9 10 5 -2 -5
-21 -41 -24 -56 -6 -8 9 -11 26 -7 41 9 34 14 31 12 -7z m54 22 c0 -5 -2 -10
-4 -10 -3 0 -8 5 -11 10 -3 6 -1 10 4 10 6 0 11 -4 11 -10z m277 -37 c-3 -10
-5 -2 -5 17 0 19 2 27 5 18 2 -10 2 -26 0 -35z m-4082 27 c3 -5 -1 -10 -10
-10 -9 0 -13 5 -10 10 3 6 8 10 10 10 2 0 7 -4 10 -10z m1282 -6 c8 -21 -45
-74 -75 -74 -22 0 -24 3 -18 30 3 18 1 30 -5 30 -6 0 -7 5 -3 11 5 8 9 8 14
-1 6 -10 13 -9 31 4 29 20 48 20 56 0z m1217 1 c-11 -8 -14 -15 -6 -15 20 0
14 -35 -11 -58 -13 -12 -37 -24 -54 -28 -43 -9 -53 13 -20 42 15 13 27 29 27
37 0 16 35 35 64 36 20 1 20 1 0 -14z m1643 -17 c-3 -8 -6 -5 -6 6 -1 11 2 17
5 13 3 -3 4 -12 1 -19z m35 -7 c-21 -22 -23 -21 -16 6 4 13 12 19 19 17 11 -4
10 -9 -3 -23z m-238 -18 c9 4 16 2 16 -3 0 -6 -11 -10 -25 -10 -14 0 -25 2
-25 4 0 2 -3 13 -6 23 -6 17 -6 17 8 -1 9 -12 21 -17 32 -13z m340 2 c3 -9 0
-15 -9 -15 -9 0 -12 6 -9 15 4 8 7 15 9 15 2 0 5 -7 9 -15z m-609 -5 c3 -5 1
-10 -4 -10 -6 0 -11 5 -11 10 0 6 2 10 4 10 3 0 8 -4 11 -10z m340 0 c3 -5 1
-10 -4 -10 -6 0 -11 5 -11 10 0 6 2 10 4 10 3 0 8 -4 11 -10z m-4005 -14 c0
-11 -19 -15 -25 -6 -3 5 1 10 9 10 9 0 16 -2 16 -4z m1170 -45 c0 -20 -17 -37
-27 -28 -7 8 7 47 18 47 5 0 9 -9 9 -19z m2780 -26 c0 -7 10 -15 23 -17 19 -3
22 -10 25 -51 2 -33 0 -47 -7 -42 -6 3 -11 22 -11 41 0 24 -5 34 -15 34 -9 0
-15 -9 -15 -24 0 -13 -3 -33 -7 -43 -6 -16 -8 -16 -13 5 -8 34 0 123 11 116 5
-3 9 -11 9 -19z m-3955 5 c3 -5 1 -10 -4 -10 -6 0 -11 5 -11 10 0 6 2 10 4 10
3 0 8 -4 11 -10z m2370 0 c-3 -5 -10 -10 -16 -10 -5 0 -9 5 -9 10 0 6 7 10 16
10 8 0 12 -4 9 -10z m1520 -57 c-28 -73 -35 -85 -35 -60 0 26 40 127 51 127 5
0 -3 -30 -16 -67z m203 43 c2 -10 -5 -31 -17 -47 -26 -35 -26 -39 -1 -39 11 0
20 -4 20 -10 0 -13 -67 -13 -75 -1 -3 6 9 26 26 45 35 40 35 75 -1 56 -11 -6
-20 -7 -20 -2 0 29 63 28 68 -2z m-283 -26 c-17 -19 -17 -21 0 -40 23 -26 7
-25 -25 0 l-25 20 24 20 c30 26 49 26 26 0z m350 4 c32 -21 31 -26 -5 -47 -32
-20 -41 -13 -12 9 16 13 16 15 0 28 -35 26 -20 35 17 10z m-1625 -14 c0 -5 -4
-10 -10 -10 -5 0 -10 5 -10 10 0 6 5 10 10 10 6 0 10 -4 10 -10z m-2535 -10
c3 -5 -1 -10 -10 -10 -9 0 -13 5 -10 10 3 6 8 10 10 10 2 0 7 -4 10 -10z
m1816 -16 c46 -15 74 -34 50 -34 -16 0 -51 -42 -51 -61 0 -23 46 -59 76 -59
13 0 27 7 32 16 15 26 35 7 26 -25 -4 -14 -6 -36 -6 -48 1 -18 -4 -23 -22 -23
-31 0 -70 -59 -62 -92 3 -13 3 -17 0 -10 -8 17 -21 15 -21 -3 0 -8 4 -15 9
-15 4 0 8 -4 8 -10 0 -5 -3 -9 -7 -8 -17 4 -83 -27 -83 -39 0 -7 -4 -13 -10
-13 -13 0 -13 4 6 48 11 26 16 68 17 137 0 114 -25 200 -70 235 l-26 20 42 0
c23 0 65 -7 92 -16z m2719 -44 c0 -5 -4 -10 -9 -10 -6 0 -13 5 -16 10 -3 6 1
10 9 10 9 0 16 -4 16 -10z m-2130 -14 c0 -3 -4 -8 -10 -11 -5 -3 -10 -1 -10 4
0 6 5 11 10 11 6 0 10 -2 10 -4z m-822 -54 c4 -27 -51 -84 -74 -75 -22 8 -16
44 13 75 31 33 57 33 61 0z m2952 4 c0 -11 -19 -15 -25 -6 -3 5 1 10 9 10 9 0
16 -2 16 -4z m0 -76 c0 -5 -7 -10 -15 -10 -8 0 -15 5 -15 10 0 6 7 10 15 10 8
0 15 -4 15 -10z m-1930 -20 c0 -5 -4 -10 -10 -10 -5 0 -10 5 -10 10 0 6 5 10
10 10 6 0 10 -4 10 -10z m-2930 -40 c0 -22 -4 -40 -8 -40 -4 0 -8 18 -7 40 0
22 3 40 8 40 4 0 7 -18 7 -40z m1792 18 c-7 -7 -12 -8 -12 -2 0 14 12 26 19
19 2 -3 -1 -11 -7 -17z m-1959 -45 c7 2 11 12 10 22 -1 13 2 14 10 6 8 -8 4
-18 -16 -37 l-27 -25 1 43 c2 31 3 35 6 15 3 -16 10 -26 16 -24z m103 17 c1
-16 -3 -27 -7 -24 -14 8 -9 54 5 54 1 0 1 -13 2 -30z m127 0 c4 -17 2 -20 -15
-14 -15 4 -18 3 -13 -6 5 -9 4 -11 -3 -6 -17 10 -15 26 3 26 9 0 12 6 8 17 -4
10 -2 14 4 10 6 -4 13 -16 16 -27z m41 19 c-3 -6 -1 -15 6 -19 13 -8 5 -30
-11 -30 -6 0 -7 5 -3 11 3 6 1 15 -6 19 -13 8 -5 30 11 30 6 0 7 -5 3 -11z
m60 -21 c7 -5 7 -11 -3 -20 -8 -7 -11 -8 -8 -2 4 7 0 17 -8 24 -8 7 -12 17 -8
23 4 7 8 6 11 -3 3 -8 10 -18 16 -22z m1826 22 c0 -5 -4 -10 -10 -10 -5 0 -10
5 -10 10 0 6 5 10 10 10 6 0 10 -4 10 -10z m695 -15 c45 -19 72 -40 88 -70 7
-14 -1 -10 -27 13 -20 17 -41 32 -46 32 -42 0 -66 -66 -35 -100 23 -25 80 -27
93 -3 10 17 42 12 42 -7 0 -6 -4 -9 -9 -6 -4 3 -5 -13 0 -37 4 -23 8 -45 9
-48 0 -3 -12 -4 -28 -1 -33 4 -62 -23 -66 -64 -2 -23 -10 -31 -37 -40 -19 -7
-36 -10 -38 -8 -2 2 -6 32 -8 66 -4 92 -47 216 -88 255 -18 17 -30 35 -27 38
11 12 134 -3 177 -20z m-2005 -1 c0 -2 -10 -9 -22 -15 -20 -11 -21 -10 -11 3
7 8 10 18 6 22 -4 4 0 4 10 0 9 -3 17 -8 17 -10z m-899 -11 c13 -15 12 -15 -8
-4 -24 12 -29 21 -14 21 5 0 15 -7 22 -17z m5079 7 c0 -5 -4 -10 -9 -10 -6 0
-13 5 -16 10 -3 6 1 10 9 10 9 0 16 -4 16 -10z m-4643 -6 c-3 -3 -12 -4 -19
-1 -8 3 -5 6 6 6 11 1 17 -2 13 -5z m4323 -49 c0 -30 -3 -35 -22 -35 -13 0
-18 3 -12 8 6 4 14 19 18 35 9 37 16 34 16 -8z m-50 -5 c0 -16 -4 -30 -9 -30
-8 0 -9 43 -2 58 5 11 11 -3 11 -28z m-2070 -38 c0 -23 -66 -83 -84 -76 -9 3
-16 11 -16 18 0 18 38 89 52 97 15 9 48 -18 48 -39z m2434 27 c-3 -5 -10 -7
-15 -3 -5 3 -7 10 -3 15 3 5 10 7 15 3 5 -3 7 -10 3 -15z m-4754 -30 c0 -15 5
-19 16 -15 12 4 14 1 9 -13 -3 -11 -1 -22 5 -26 5 -3 10 -11 10 -17 0 -6 -9
-3 -19 6 -15 14 -20 14 -25 4 -5 -11 -7 -11 -12 0 -5 10 -9 9 -19 -5 -12 -15
-17 -16 -34 -5 -17 9 -25 10 -40 0 -15 -9 -23 -9 -35 1 -20 17 -20 35 0 56 15
14 19 14 39 1 20 -13 24 -13 29 -1 7 19 21 19 40 -1 15 -14 16 -13 16 10 0 14
5 26 10 26 6 0 10 -9 10 -21z m-188 -17 c-17 -3 -22 -9 -20 -25 2 -15 9 -21
22 -19 11 2 15 -1 11 -7 -10 -17 -33 -13 -45 8 -13 25 -13 27 5 45 9 9 22 12
33 8 14 -6 13 -7 -6 -10z m272 6 c16 -52 16 -68 -1 -68 -14 0 -18 9 -18 40 -1
38 11 55 19 28z m76 -3 c14 -17 5 -35 -16 -35 -8 0 -12 -5 -9 -10 4 -6 12 -7
18 -4 9 5 9 3 0 -6 -10 -11 -15 -11 -28 0 -18 15 -20 41 -3 58 16 16 23 15 38
-3z m65 5 c3 -5 -2 -10 -12 -10 -15 0 -14 -4 7 -20 21 -17 23 -21 10 -30 -20
-13 -37 -13 -46 2 -5 7 -2 9 8 5 25 -9 30 5 7 21 -16 11 -17 17 -8 28 14 16
25 18 34 4z m155 -16 c0 -2 -14 -4 -31 -4 -16 0 -28 4 -25 9 5 8 56 3 56 -5z
m3970 6 c0 -5 -4 -10 -10 -10 -5 0 -10 5 -10 10 0 6 5 10 10 10 6 0 10 -4 10
-10z m-3565 -25 c0 -26 -50 -54 -66 -38 -9 9 -5 18 15 38 29 29 51 29 51 0z
m201 -31 c-2 -6 0 -17 4 -24 5 -8 2 -19 -7 -29 -14 -13 -13 -17 5 -31 14 -12
17 -21 11 -33 -8 -14 -14 -14 -35 -5 -24 11 -29 9 -50 -15 -13 -16 -24 -37
-24 -48 0 -11 -7 -19 -16 -19 -10 0 -14 -6 -11 -14 4 -9 1 -13 -6 -11 -7 2
-24 6 -39 9 -16 4 -28 10 -28 15 0 5 25 39 55 76 30 37 67 93 83 126 l27 58
17 -22 c10 -12 16 -27 14 -33z m2000 41 c-22 -17 -46 -20 -46 -6 0 11 18 19
45 20 20 0 20 0 1 -14z m1769 5 c3 -5 -1 -10 -10 -10 -9 0 -13 5 -10 10 3 6 8
10 10 10 2 0 7 -4 10 -10z m-4380 -20 c4 -6 -7 -10 -25 -10 -18 0 -29 4 -25
10 3 6 15 10 25 10 10 0 22 -4 25 -10z m3975 -10 c0 -5 -9 -10 -21 -10 -11 0
-17 5 -14 10 3 6 13 10 21 10 8 0 14 -4 14 -10z m-2153 -42 c-3 -8 -6 -5 -6 6
-1 11 2 17 5 13 3 -3 4 -12 1 -19z m2463 -29 c0 -6 -13 -43 -28 -82 -15 -40
-41 -112 -58 -161 -26 -79 -45 -109 -60 -94 -2 3 16 63 42 134 25 71 53 148
61 172 13 37 43 59 43 31z m-2255 -9 c3 -5 -1 -10 -9 -10 -9 0 -16 5 -16 10 0
6 4 10 9 10 6 0 13 -4 16 -10z m-679 -24 c28 -13 54 -31 57 -40 6 -14 3 -15
-14 -5 -26 13 -69 4 -69 -16 0 -8 -4 -15 -10 -15 -17 0 -11 -39 10 -60 22 -22
69 -27 88 -8 7 7 12 25 12 40 0 36 15 37 18 2 1 -15 7 -33 13 -40 9 -11 7 -14
-10 -14 -12 0 -20 -4 -16 -10 3 -5 11 -7 18 -4 10 3 12 -5 9 -31 -2 -19 -8
-32 -13 -29 -5 3 -9 -5 -9 -17 0 -21 -1 -21 -18 -6 -26 24 -53 21 -86 -9 -22
-21 -27 -33 -23 -54 9 -43 -2 -65 -40 -82 l-35 -16 5 24 c2 13 0 27 -4 30 -5
3 -9 -1 -9 -9 0 -8 -7 -17 -15 -21 -18 -7 -19 14 -4 64 15 52 39 166 50 240
18 127 15 123 95 86z m2784 -37 c0 -6 -20 -29 -45 -51 -25 -22 -45 -43 -45
-47 0 -4 16 -24 35 -46 22 -23 34 -44 30 -53 -4 -12 -19 -2 -60 38 l-55 54 57
58 c55 55 83 71 83 47z m245 -46 l49 -54 -57 -55 c-31 -30 -61 -54 -66 -54
-26 0 -17 23 26 64 l48 45 -39 40 c-25 25 -37 45 -33 55 9 24 17 19 72 -41z
m-4885 -72 c0 -12 -42 -114 -52 -125 -15 -18 -9 15 15 75 19 52 37 75 37 50z
m-109 -43 c-21 -16 -22 -21 -10 -29 7 -5 17 -9 22 -9 4 0 7 -4 7 -10 0 -15
-12 -12 -40 10 l-25 20 30 25 c16 13 32 22 35 19 3 -3 -6 -15 -19 -26z m199 6
c19 -22 1 -68 -28 -72 -12 -2 -22 -10 -22 -18 0 -8 -4 -14 -10 -14 -6 0 -10
27 -10 60 0 59 0 60 29 60 16 0 34 -7 41 -16z m76 -5 c19 -21 18 -21 -5 -40
-13 -10 -28 -19 -35 -19 -6 1 0 10 13 20 l23 20 -23 20 c-18 15 -20 19 -8 20
9 0 24 -9 35 -21z m2262 -81 c34 -17 62 -35 62 -39 0 -5 8 -17 18 -27 9 -10
26 -34 37 -55 16 -31 18 -41 7 -57 -14 -22 -16 -54 -4 -46 5 3 4 -10 -2 -29
-6 -19 -17 -35 -24 -35 -7 0 -18 -11 -24 -25 -8 -18 -17 -24 -27 -19 -38 16
-51 15 -80 -7 -19 -14 -33 -35 -37 -56 -6 -34 -32 -49 -71 -41 -22 5 -21 44 2
91 25 48 45 232 33 298 -5 30 -14 58 -19 64 -36 37 37 28 129 -17z m384 10
c-7 -7 -12 -8 -12 -2 0 6 3 14 7 17 3 4 9 5 12 2 2 -3 -1 -11 -7 -17z m-662
-28 c0 -5 -5 -10 -11 -10 -5 0 -7 5 -4 10 3 6 8 10 11 10 2 0 4 -4 4 -10z
m635 -30 c9 -14 -13 -50 -30 -50 -16 0 -19 18 -9 44 7 18 30 21 39 6z m-655
-33 c0 -24 -11 -41 -47 -71 -19 -15 -25 -16 -38 -6 -22 19 -18 38 14 71 36 36
71 39 71 6z m-1373 -4 c8 -20 -39 -63 -68 -63 -31 0 -23 36 14 59 39 25 46 26
54 4z m213 -47 c12 -16 11 -20 -10 -37 -21 -15 -23 -21 -12 -36 30 -44 26 -67
-8 -45 -11 7 -24 12 -30 12 -17 0 -50 -39 -50 -60 0 -46 -52 -72 -102 -52 -15
6 -10 17 35 72 28 36 60 74 71 85 10 11 30 45 44 75 25 54 26 54 36 29 6 -14
18 -34 26 -43z m1940 -16 c0 -5 -4 -10 -10 -10 -5 0 -10 5 -10 10 0 6 5 10 10
10 6 0 10 -4 10 -10z m-2760 -29 c0 -9 -11 -40 -88 -246 -18 -50 -35 -81 -46
-83 -18 -4 -20 1 -7 26 5 9 18 44 30 77 56 165 85 235 97 235 8 0 14 -4 14 -9z
m-156 -59 c3 -5 -15 -28 -39 -52 -25 -24 -45 -49 -45 -54 0 -6 17 -27 37 -48
23 -24 33 -41 28 -47 -12 -11 -24 -2 -78 56 l-39 41 59 56 c59 57 68 62 77 48z
m228 -20 c14 -15 38 -40 53 -56 l26 -28 -58 -54 c-53 -49 -83 -66 -83 -46 0 4
22 27 50 52 27 24 47 47 44 52 -3 4 0 8 6 8 6 0 8 5 5 10 -4 6 -10 8 -14 6 -9
-6 -71 58 -71 73 0 18 13 13 42 -17z m1968 8 c0 -5 -4 -10 -10 -10 -5 0 -10 5
-10 10 0 6 5 10 10 10 6 0 10 -4 10 -10z m-1000 -24 c0 -27 -20 -39 -41 -25
-11 7 -11 9 2 9 20 0 33 27 16 34 -7 2 -4 5 6 5 12 1 17 -7 17 -23z m3164 -6
c152 -45 270 -87 273 -96 2 -5 -19 -21 -45 -35 -26 -14 -89 -50 -139 -79 l-93
-54 -1 -170 c-1 -299 -4 -335 -25 -351 -22 -17 -87 -11 -119 11 -11 8 -29 14
-42 14 -22 0 -224 68 -233 79 -3 3 -18 7 -34 8 -31 2 -66 28 -66 50 0 11 4 11
20 1 27 -17 45 2 36 37 -6 22 -11 26 -32 22 l-24 -4 2 206 3 206 55 30 c115
62 316 154 339 155 12 0 69 -14 125 -30z m-3094 -72 c0 -19 -2 -20 -12 -6 -7
9 -20 18 -28 21 -8 3 -3 6 13 6 21 1 27 -3 27 -21z m-150 -18 c0 -5 -8 -10
-17 -10 -15 0 -16 2 -3 10 19 12 20 12 20 0z m90 -54 c0 -29 -4 -34 -27 -39
-39 -7 -53 1 -53 32 0 36 6 41 47 41 31 0 33 -2 33 -34z m1525 -46 c20 -32
-68 -103 -94 -77 -18 18 -13 34 20 61 31 27 63 34 74 16z m-127 -92 c-2 -6
-10 -14 -16 -16 -7 -2 -10 2 -6 12 7 18 28 22 22 4z m247 -332 c1 -213 4 -301
12 -303 6 -2 13 8 15 24 2 20 10 29 28 33 16 4 26 14 28 27 2 14 12 23 25 25
16 2 23 11 25 31 3 21 9 27 28 27 20 0 24 5 24 30 l0 31 148 -3 147 -3 3 -82
c3 -85 3 -84 -38 -87 -9 -1 -16 -13 -18 -28 -3 -24 -8 -28 -33 -28 -24 0 -29
-4 -29 -24 0 -18 -6 -25 -22 -28 -16 -2 -24 -11 -26 -30 -3 -21 -9 -27 -30
-30 -21 -2 -28 -9 -30 -30 -3 -22 -9 -28 -28 -28 -19 0 -24 -5 -24 -25 0 -20
-5 -25 -25 -25 -31 0 -33 -17 -2 -22 15 -2 23 -11 25 -30 2 -19 10 -28 25 -30
15 -2 23 -11 25 -30 3 -21 9 -27 30 -30 21 -2 28 -9 30 -30 3 -22 9 -28 28
-28 19 0 24 -5 24 -24 0 -19 6 -25 28 -28 19 -2 28 -9 30 -25 3 -17 10 -23 28
-23 23 0 24 -3 24 -65 l0 -65 -150 0 -150 0 0 24 c0 18 -6 25 -22 28 -15 2
-24 11 -26 25 -2 13 -11 23 -25 25 -13 2 -23 13 -27 28 -5 18 -12 24 -27 22
-17 -2 -22 3 -25 24 -2 15 -9 29 -15 32 -10 3 -13 -22 -13 -102 l0 -106 -160
0 -160 0 0 623 c0 343 3 627 7 631 4 3 77 5 162 4 l156 -3 0 -299z m-570 240
c17 -9 35 -16 40 -16 18 0 86 -51 80 -60 -3 -5 0 -12 6 -15 6 -5 8 -22 4 -46
-5 -30 -3 -39 7 -39 8 0 14 -9 14 -20 0 -11 -7 -20 -15 -20 -25 0 -51 -32 -52
-64 0 -17 -3 -25 -6 -18 -2 6 -9 10 -13 7 -5 -3 -18 0 -29 7 -16 10 -23 10
-33 0 -6 -6 -27 -12 -44 -12 l-33 0 0 75 c0 41 -4 82 -9 92 -5 10 -12 36 -15
57 -4 23 -18 52 -34 69 l-28 30 65 -6 c36 -3 79 -12 95 -21z m-2294 -52 c12
-14 11 -16 -5 -13 -11 2 -21 10 -24 17 -5 17 13 15 29 -4z m1999 -30 c0 -25
-56 -74 -84 -74 -37 0 -34 32 7 64 36 29 77 34 77 10z m-1955 -42 c-3 -3 -11
0 -18 7 -9 10 -8 11 6 5 10 -3 15 -9 12 -12z m59 -57 c3 -10 -1 -15 -13 -15
-10 0 -21 7 -25 15 -3 10 1 15 13 15 10 0 21 -7 25 -15z m1980 -56 c-3 -5 -10
-7 -15 -3 -5 3 -7 10 -3 15 3 5 10 7 15 3 5 -3 7 -10 3 -15z m-1929 -9 c3 -5
1 -10 -4 -10 -6 0 -11 5 -11 10 0 6 2 10 4 10 3 0 8 -4 11 -10z m60 -71 c10
-15 -1 -23 -20 -15 -9 3 -13 10 -10 16 8 13 22 13 30 -1z m3313 -108 c2 -6 10
-11 17 -11 7 0 28 -17 47 -37 l33 -38 115 0 115 0 37 38 c21 20 44 37 52 37 8
0 16 5 18 11 2 6 27 14 56 17 43 4 52 2 52 -12 0 -9 7 -16 15 -16 8 0 15 -9
15 -19 0 -11 5 -23 10 -26 6 -3 10 -44 10 -91 0 -49 -4 -84 -10 -84 -5 0 -10
-16 -10 -35 0 -19 5 -35 10 -35 6 0 10 -9 10 -19 0 -11 5 -23 10 -26 6 -3 10
-15 10 -25 0 -15 10 -20 48 -25 74 -10 80 -13 30 -14 -25 0 -53 -4 -62 -7 -25
-10 -8 -24 30 -24 46 0 44 -18 -3 -22 -33 -3 -38 -7 -41 -30 -2 -16 -8 -28
-13 -28 -5 0 -9 -9 -9 -19 0 -10 -7 -21 -15 -25 -8 -3 -15 -15 -15 -26 0 -11
-7 -20 -15 -20 -8 0 -15 -7 -15 -15 0 -8 -6 -15 -14 -15 -8 0 -16 -7 -20 -15
-3 -8 -12 -15 -21 -15 -8 0 -15 -4 -15 -8 0 -5 -21 -18 -47 -29 -43 -18 -66
-20 -213 -19 -136 2 -170 5 -191 19 -14 9 -29 14 -32 11 -4 -4 -9 1 -13 10 -3
9 -13 16 -20 16 -8 0 -17 7 -20 15 -4 8 -11 15 -18 15 -22 0 -76 76 -76 106 0
8 -4 14 -9 14 -5 0 -11 12 -13 28 -3 24 -7 27 -45 30 -54 4 -57 22 -4 22 42 0
62 14 35 24 -9 3 -43 6 -77 6 -44 0 -58 3 -47 10 8 5 43 10 78 10 48 0 62 3
62 15 0 8 9 30 20 50 21 38 27 90 10 100 -5 3 -10 42 -10 86 0 46 4 79 10 79
6 0 10 7 10 16 0 9 10 27 23 41 19 21 29 23 72 20 27 -3 51 -10 53 -16z
m-3418 -206 c0 -7 12 -15 28 -17 25 -3 27 -7 30 -55 2 -32 -1 -53 -7 -53 -6 0
-11 20 -11 46 0 38 -3 45 -17 42 -13 -2 -19 -15 -21 -46 -5 -65 -27 -47 -29
24 -2 32 0 65 2 72 6 16 25 6 25 -13z m140 -40 c0 -37 4 -65 10 -65 6 0 10 -4
10 -10 0 -5 -16 -10 -35 -10 -19 0 -35 5 -35 10 0 6 5 10 10 10 6 0 10 23 10
50 0 28 -3 49 -7 49 -22 -4 -25 3 -7 16 36 28 44 19 44 -50z m4216 37 c-21
-64 -54 -136 -64 -140 -9 -3 -6 14 8 50 12 29 26 65 32 81 11 29 33 38 24 9z
m44 -1 c0 -14 8 -21 28 -23 25 -3 27 -7 30 -55 2 -32 -1 -53 -7 -53 -6 0 -11
20 -11 46 0 38 -3 45 -17 42 -13 -2 -19 -15 -21 -46 -5 -71 -22 -46 -22 33 0
43 4 75 10 75 6 0 10 -9 10 -19z m130 -46 c0 -37 4 -65 10 -65 6 0 10 -4 10
-10 0 -5 -16 -10 -35 -10 -36 0 -47 13 -20 24 22 8 21 85 -1 93 -15 6 -15 8 2
20 30 22 34 16 34 -52z m-4602 20 c-34 -30 -35 -38 -3 -55 23 -12 34 -30 18
-30 -11 0 -73 51 -73 60 0 9 60 50 75 50 6 -1 -2 -12 -17 -25z m302 3 c17 -12
30 -27 29 -32 0 -16 -59 -60 -67 -51 -4 4 3 15 16 25 27 22 28 32 2 48 -11 7
-20 17 -20 22 0 15 8 12 40 -12z m4007 -22 l-28 -22 26 -14 c24 -13 34 -30 16
-30 -12 0 -61 40 -61 50 0 11 63 50 70 44 3 -3 -8 -16 -23 -28z m392 6 l33
-27 -32 -23 c-17 -13 -35 -21 -38 -17 -4 4 3 14 16 23 l23 15 -27 29 c-35 36
-18 37 25 0z m-2482 -604 c32 -30 30 -58 -3 -58 -17 0 -28 6 -31 19 -4 16 -13
19 -42 17 l-36 -2 -3 -87 -3 -87 35 0 c25 0 38 6 46 20 13 25 60 28 60 3 0 -9
-10 -27 -22 -40 -30 -32 -121 -33 -155 -1 -21 19 -23 31 -23 106 0 80 2 86 28
108 37 33 115 34 149 2z m593 -51 l5 -68 40 40 c23 25 48 41 62 41 33 0 29
-14 -19 -59 l-43 -40 43 -43 c48 -50 51 -58 20 -58 -13 0 -41 18 -65 42 l-43
42 0 -43 c0 -40 -1 -42 -27 -39 l-28 3 -2 113 c-2 130 1 144 31 140 18 -3 22
-11 26 -71z m240 53 c0 -16 -7 -20 -30 -20 -18 0 -30 5 -30 13 0 20 10 27 37
27 16 0 23 -6 23 -20z m-2172 -52 c3 -37 3 -38 -30 -35 -30 2 -33 5 -36 40 -3
38 -3 38 30 35 30 -3 33 -6 36 -40z m739 -14 c7 -10 13 -44 13 -75 0 -32 5
-61 10 -64 6 -3 10 -13 10 -21 0 -20 -47 -18 -59 4 -10 16 -12 16 -25 0 -18
-24 -93 -24 -118 -1 -19 17 -24 68 -8 93 6 10 31 17 71 20 41 3 64 10 67 19 4
11 -9 13 -67 9 -76 -6 -91 0 -63 25 34 30 145 24 169 -9z m239 5 c15 -17 18
-33 16 -83 -5 -82 -19 -96 -94 -96 -79 0 -97 20 -98 104 0 81 14 96 95 96 50
0 65 -4 81 -21z m596 4 c14 -12 18 -31 18 -82 0 -85 -15 -101 -97 -101 -79 0
-103 23 -103 99 0 78 23 101 103 101 42 0 66 -5 79 -17z m240 0 c14 -12 18
-31 18 -76 0 -84 -22 -107 -101 -107 -72 0 -94 22 -98 100 -3 76 21 100 102
100 42 0 66 -5 79 -17z m358 -62 c0 -61 3 -80 15 -85 8 -3 15 -12 15 -21 0
-12 -12 -15 -55 -15 -43 0 -55 3 -55 15 0 9 7 18 15 21 11 5 15 21 15 60 0 39
-4 56 -15 60 -8 4 -15 15 -15 25 0 15 7 19 40 19 l40 0 0 -79z m237 57 c25
-23 30 -67 11 -86 -7 -7 -39 -12 -75 -12 -56 0 -63 -2 -63 -20 0 -17 7 -20 40
-20 22 0 49 5 59 12 10 6 26 8 36 4 17 -6 16 -8 -5 -31 -20 -21 -33 -25 -82
-25 -80 0 -98 19 -98 102 0 83 14 98 93 98 49 0 65 -4 84 -22z m-2327 -73 c0
-33 -2 -35 -35 -35 -33 0 -35 2 -35 35 0 33 2 35 35 35 33 0 35 -2 35 -35z
m2540 -105 c0 -5 -7 -10 -16 -10 -8 0 -12 5 -9 10 3 6 10 10 16 10 5 0 9 -4 9
-10z m68 -1 c-2 -6 -8 -10 -13 -10 -5 0 -11 4 -13 10 -2 6 4 11 13 11 9 0 15
-5 13 -11z m72 1 c0 -5 -7 -10 -15 -10 -8 0 -15 5 -15 10 0 6 7 10 15 10 8 0
15 -4 15 -10z m60 0 c0 -5 -7 -10 -16 -10 -8 0 -12 5 -9 10 3 6 10 10 16 10 5
0 9 -4 9 -10z m70 0 c0 -5 -7 -10 -15 -10 -8 0 -15 5 -15 10 0 6 7 10 15 10 8
0 15 -4 15 -10z m70 0 c0 -5 -7 -10 -15 -10 -8 0 -15 5 -15 10 0 6 7 10 15 10
8 0 15 -4 15 -10z m-610 -65 c0 -13 -112 -14 -875 -14 -765 0 -873 1 -868 14
8 23 1743 23 1743 0z m-979 -72 c-12 -20 -14 -14 -5 12 4 9 9 14 11 11 3 -2 0
-13 -6 -23z m104 -24 c-9 -14 13 -66 32 -73 18 -7 49 8 62 32 9 15 10 15 11
-5 0 -12 -4 -25 -10 -28 -15 -9 -12 -61 5 -75 8 -7 15 -16 15 -21 0 -20 -18
-7 -47 35 -48 68 -109 67 -153 -4 -14 -22 -31 -40 -39 -40 -10 0 -8 7 8 24 24
25 24 42 5 106 l-7 25 22 -27 c12 -16 27 -28 33 -28 22 0 48 34 48 62 0 15 5
28 11 28 5 0 7 -5 4 -11z m176 -56 c13 -16 12 -17 -3 -4 -10 7 -18 15 -18 17
0 8 8 3 21 -13z m279 -38 c0 -33 -2 -35 -35 -35 -33 0 -35 2 -35 35 0 33 2 35
35 35 33 0 35 -2 35 -35z m-878 9 c23 23 28 20 28 -14 0 -27 -3 -30 -30 -30
-27 0 -30 3 -29 33 0 24 2 27 8 13 7 -17 8 -17 23 -2z m608 -58 c0 -2 -8 -10
-17 -17 -16 -13 -17 -12 -4 4 13 16 21 21 21 13z m190 -30 c0 -29 -4 -34 -27
-39 -37 -7 -43 -2 -43 39 0 32 2 34 35 34 33 0 35 -2 35 -34z m-703 18 c-3 -3
-12 -4 -19 -1 -8 3 -5 6 6 6 11 1 17 -2 13 -5z"/>
<path d="M1457 4554 c-9 -10 2 -24 19 -24 8 0 14 7 14 15 0 15 -21 21 -33 9z"/>
<path d="M2559 4258 c-11 -39 -8 -48 19 -48 26 0 58 31 45 44 -6 6 -62 9 -64
4z"/>
<path d="M4125 4180 c-3 -5 -1 -10 4 -10 6 0 11 5 11 10 0 6 -2 10 -4 10 -3 0
-8 -4 -11 -10z"/>
<path d="M3920 4000 c0 -17 6 -20 45 -18 25 0 45 3 45 4 0 7 -60 34 -75 34 -8
0 -15 -9 -15 -20z"/>
<path d="M3910 3961 c0 -6 11 -22 24 -36 20 -21 25 -23 30 -9 8 21 8 20 -10
38 -17 18 -44 21 -44 7z"/>
<path d="M3670 3940 c0 -5 7 -10 16 -10 8 0 12 5 9 10 -3 6 -10 10 -16 10 -5
0 -9 -4 -9 -10z"/>
<path d="M4065 3940 c-3 -5 -1 -10 4 -10 6 0 11 5 11 10 0 6 -2 10 -4 10 -3 0
-8 -4 -11 -10z"/>
<path d="M3922 3869 c-7 -12 -11 -24 -7 -27 7 -8 25 17 25 36 0 17 -3 15 -18
-9z"/>
<path d="M3630 3760 c0 -5 5 -10 10 -10 6 0 10 5 10 10 0 6 -4 10 -10 10 -5 0
-10 -4 -10 -10z"/>
<path d="M3897 3743 c-17 -29 -32 -182 -28 -285 1 -27 31 -42 31 -16 0 6 8 4
19 -6 19 -17 19 -16 25 46 3 35 8 87 12 116 3 29 2 60 -2 70 -4 9 -8 25 -8 36
-1 20 -41 52 -49 39z"/>
<path d="M3540 3599 c0 -5 5 -7 10 -4 6 3 10 8 10 11 0 2 -4 4 -10 4 -5 0 -10
-5 -10 -11z"/>
<path d="M3505 3129 c-4 -6 -5 -13 -2 -16 7 -7 27 6 27 18 0 12 -17 12 -25 -2z"/>
<path d="M3577 3114 c-3 -3 -3 -12 0 -20 3 -9 0 -14 -8 -12 -22 5 -21 -26 2
-50 31 -34 89 -28 102 11 13 41 -13 77 -57 77 -18 0 -35 -3 -39 -6z"/>
<path d="M3522 2528 c6 -18 28 -21 28 -4 0 9 -7 16 -16 16 -9 0 -14 -5 -12
-12z"/>
<path d="M3550 2478 c-25 -27 -26 -59 -2 -89 31 -37 52 -19 52 45 0 62 -18 78
-50 44z"/>
<path d="M3511 2314 c0 -11 3 -14 6 -6 3 7 2 16 -1 19 -3 4 -6 -2 -5 -13z"/>
<path d="M1857 4003 c-14 -13 -6 -23 18 -23 16 0 25 6 25 15 0 15 -31 21 -43
8z"/>
<path d="M1875 3950 c-3 -5 1 -10 9 -10 9 0 16 5 16 10 0 6 -4 10 -9 10 -6 0
-13 -4 -16 -10z"/>
<path d="M1757 3943 c-3 -5 1 -14 9 -21 12 -10 14 -10 14 2 0 17 -16 30 -23
19z"/>
<path d="M1922 3680 c0 -14 2 -19 5 -12 2 6 2 18 0 25 -3 6 -5 1 -5 -13z"/>
<path d="M1911 3598 c-27 -60 -33 -95 -20 -104 19 -11 40 27 33 58 -4 20 -1
30 10 34 18 7 22 39 6 49 -5 3 -18 -13 -29 -37z"/>
<path d="M2000 3500 c-18 -34 -12 -60 14 -60 47 0 62 55 19 71 -17 6 -25 4
-33 -11z"/>
<path d="M1921 3414 c0 -11 3 -14 6 -6 3 7 2 16 -1 19 -3 4 -6 -2 -5 -13z"/>
<path d="M1924 3334 c-4 -14 -3 -51 1 -82 4 -32 9 -93 11 -137 4 -113 22 -255
33 -269 15 -19 22 -68 24 -174 3 -99 13 -132 36 -118 6 4 11 18 11 31 0 13 11
32 25 43 l25 20 -10 98 c-6 55 -15 124 -20 154 -6 30 -12 76 -16 103 -3 26 -9
47 -13 47 -4 0 -5 28 -3 63 4 59 -13 152 -40 220 -14 37 -55 38 -64 1z"/>
<path d="M2082 2536 c2 -22 9 -41 16 -44 17 -5 15 40 -3 64 -14 18 -15 17 -13
-20z"/>
<path d="M2026 2481 c-4 -7 -5 -15 -2 -18 9 -9 19 4 14 18 -4 11 -6 11 -12 0z"/>
<path d="M912 2393 c-22 -4 -23 -7 -20 -101 l3 -97 93 -3 92 -3 0 -49 c0 -43
3 -49 23 -52 17 -2 23 -11 25 -35 2 -24 9 -33 25 -35 15 -2 23 -11 25 -30 2
-19 10 -28 25 -30 15 -2 23 -12 27 -33 4 -21 12 -31 27 -33 14 -2 23 -12 25
-25 2 -12 13 -26 26 -32 14 -6 22 -18 22 -33 0 -15 7 -26 20 -29 14 -4 20 -14
20 -33 0 -22 5 -29 23 -32 15 -2 23 -11 25 -30 2 -19 10 -28 25 -30 17 -2 23
-11 25 -35 2 -24 8 -33 22 -33 12 0 20 -8 22 -22 2 -15 11 -24 26 -26 17 -3
22 -10 22 -33 0 -24 4 -29 24 -29 21 0 25 -6 28 -32 2 -25 8 -34 26 -36 17 -3
22 -10 22 -32 0 -22 5 -29 23 -32 15 -2 23 -11 25 -30 2 -19 10 -28 25 -30 16
-2 23 -11 25 -30 3 -22 9 -28 28 -28 20 0 24 -5 24 -30 l0 -31 153 3 152 3 0
100 0 100 -32 3 c-28 3 -32 7 -35 35 -2 24 -8 33 -25 35 -17 3 -23 10 -23 28
0 17 -8 27 -25 34 -18 7 -25 17 -25 35 0 18 -5 25 -19 25 -14 0 -21 8 -23 28
-2 19 -9 28 -25 30 -16 2 -23 11 -25 35 -2 24 -8 33 -25 35 -18 3 -23 10 -23
32 0 22 -5 29 -22 32 -18 2 -24 11 -26 36 -3 26 -7 32 -28 32 -20 0 -24 5 -24
30 0 25 -4 30 -24 30 -21 0 -25 6 -28 33 -2 24 -8 33 -25 35 -16 2 -23 11 -25
35 -2 24 -9 33 -28 37 -19 4 -26 13 -28 38 -3 24 -9 33 -28 38 -18 5 -24 13
-24 35 0 24 -4 29 -24 29 -25 0 -36 16 -36 55 0 17 -6 25 -22 27 -18 2 -24 11
-26 35 -3 25 -9 34 -28 39 -19 5 -24 13 -24 39 0 21 -6 35 -16 39 -17 7 -376
6 -412 -1z"/>
<path d="M1847 2343 c-4 -3 -7 -147 -7 -319 l0 -313 23 -3 c17 -2 23 -11 25
-35 2 -25 8 -33 23 -33 14 0 19 -7 19 -25 0 -18 7 -26 24 -31 17 -4 26 -14 28
-32 2 -19 10 -28 26 -30 17 -3 22 -10 22 -33 0 -24 4 -29 25 -29 21 0 25 -5
25 -30 0 -23 4 -30 20 -30 20 0 20 7 20 475 l0 475 -133 0 c-74 0 -137 -3
-140 -7z"/>
<path d="M995 2098 c-3 -7 -6 -173 -7 -368 l-3 -355 -32 -3 c-28 -3 -33 -8
-39 -38 -8 -45 2 -125 19 -137 6 -4 41 -6 77 -3 36 3 93 6 127 6 l62 0 3 33
c2 27 8 33 31 35 l27 3 -2 297 -3 297 -27 3 c-21 3 -27 9 -30 30 -2 19 -10 28
-25 30 -18 3 -23 10 -23 32 0 24 -5 29 -27 32 -20 2 -28 9 -29 23 -1 11 -2 26
-3 33 -1 6 -10 12 -20 12 -13 0 -21 8 -23 23 -3 25 -45 37 -53 15z"/>
<path d="M2347 1950 c-5 -24 -12 -30 -31 -30 -19 0 -25 -6 -28 -27 -2 -22 -9
-29 -30 -31 -24 -3 -28 -8 -28 -33 0 -26 -3 -29 -30 -29 l-30 0 0 -239 0 -238
30 -6 c24 -5 30 -12 30 -32 0 -20 5 -25 25 -25 20 0 25 -5 25 -25 0 -21 5 -25
30 -25 25 0 30 -4 30 -25 l0 -25 289 0 290 0 3 28 c2 21 9 28 31 30 l28 3 -3
72 -3 72 -262 3 -263 2 0 50 0 50 235 0 235 0 0 25 c0 20 6 27 30 32 23 4 30
11 30 29 0 16 7 24 23 26 21 3 22 7 22 113 0 108 0 109 -25 115 -15 4 -26 15
-30 30 -4 16 -14 26 -28 28 -16 2 -22 10 -22 27 0 18 -6 24 -27 27 -22 2 -29
9 -31 31 l-3 27 -253 0 -253 0 -6 -30z m407 -241 c4 -22 4 -44 1 -50 -4 -5
-73 -9 -156 -9 l-149 0 0 50 0 50 149 0 148 0 7 -41z"/>
<path d="M2480 1700 c0 -19 7 -20 120 -20 113 0 120 1 120 20 0 19 -7 20 -120
20 -113 0 -120 -1 -120 -20z m227 -4 c3 -3 -34 -6 -83 -6 -61 0 -84 3 -74 10
16 10 146 7 157 -4z"/>
<path d="M1182 3964 c-28 -19 -28 -39 0 -58 40 -29 82 26 46 62 -15 15 -19 15
-46 -4z"/>
<path d="M1176 3863 c-11 -11 -6 -23 9 -23 8 0 15 4 15 9 0 13 -16 22 -24 14z"/>
<path d="M2750 3510 c0 -5 5 -10 10 -10 6 0 10 5 10 10 0 6 -4 10 -10 10 -5 0
-10 -4 -10 -10z"/>
<path d="M2710 3440 c0 -5 5 -10 10 -10 6 0 10 5 10 10 0 6 -4 10 -10 10 -5 0
-10 -4 -10 -10z"/>
<path d="M552 3379 c1 -13 8 -23 13 -21 15 3 12 35 -3 40 -9 3 -13 -3 -10 -19z"/>
<path d="M620 3380 c0 -11 7 -20 15 -20 8 0 15 9 15 20 0 11 -7 20 -15 20 -8
0 -15 -9 -15 -20z"/>
<path d="M820 3390 c0 -5 5 -10 10 -10 6 0 10 5 10 10 0 6 -4 10 -10 10 -5 0
-10 -4 -10 -10z"/>
<path d="M2372 3249 c2 -7 10 -15 17 -17 8 -3 12 1 9 9 -2 7 -10 15 -17 17 -8
3 -12 -1 -9 -9z"/>
<path d="M607 3064 c-10 -10 -9 -52 2 -58 13 -8 33 20 29 40 -3 19 -20 28 -31
18z"/>
<path d="M2955 2951 c-7 -12 29 -33 39 -24 3 3 6 12 6 20 0 15 -36 18 -45 4z"/>
<path d="M2998 2893 c-10 -2 -18 -9 -18 -14 0 -6 -7 -17 -15 -26 -19 -18 -11
-51 17 -75 64 -56 138 44 76 102 -22 20 -28 22 -60 13z"/>
<path d="M4770 2700 c8 -5 10 -10 4 -10 -7 0 -14 -9 -17 -21 -3 -12 -10 -18
-16 -15 -15 10 -25 -42 -12 -58 6 -8 32 -19 56 -25 37 -9 53 -8 97 6 49 17 53
20 51 47 -3 42 -29 64 -82 71 -25 3 -57 8 -71 11 -19 4 -22 2 -10 -6z"/>
<path d="M5004 2616 c-13 -35 39 -60 76 -36 12 7 12 13 4 27 -15 24 -72 30
-80 9z"/>
<path d="M4618 2614 c-3 -3 -20 -6 -37 -6 -23 -1 -30 -5 -26 -15 3 -8 5 -18 5
-22 0 -19 53 -32 86 -21 39 13 43 32 12 54 -24 17 -32 19 -40 10z"/>
<path d="M4715 2550 c-3 -5 -1 -10 4 -10 6 0 11 5 11 10 0 6 -2 10 -4 10 -3 0
-8 -4 -11 -10z"/>
<path d="M4840 2534 c-12 -22 -12 -27 0 -34 32 -21 110 -7 110 19 0 27 -21 41
-60 41 -29 0 -39 -5 -50 -26z"/>
<path d="M4427 2484 c-8 -8 1 -24 14 -24 5 0 9 7 9 15 0 15 -12 20 -23 9z"/>
<path d="M4513 2442 c-40 -25 -43 -30 -43 -73 l0 -47 46 -7 c47 -7 63 2 64 33
0 13 31 16 68 6 17 -5 22 -14 22 -39 0 -32 -1 -33 -34 -25 -19 4 -37 5 -40 2
-4 -3 -6 -24 -6 -47 0 -42 1 -43 40 -49 38 -6 40 -8 40 -42 0 -29 -3 -34 -17
-31 -10 3 -30 8 -45 11 -24 5 -28 11 -28 40 0 31 -3 34 -37 40 -69 11 -73 9
-73 -30 0 -25 10 -49 36 -82 33 -44 40 -48 122 -69 l86 -22 36 22 c47 28 50
35 48 86 -1 31 -10 53 -27 74 -14 17 -21 32 -16 34 28 10 37 24 39 69 3 45 0
52 -38 91 -34 35 -53 46 -106 59 -36 8 -72 17 -80 19 -8 3 -34 -8 -57 -23z"/>
<path d="M4850 2200 c0 -5 5 -10 10 -10 6 0 10 5 10 10 0 6 -4 10 -10 10 -5 0
-10 -4 -10 -10z"/>
<path d="M4814 1985 c-9 -23 3 -45 25 -45 25 0 34 14 26 40 -7 23 -43 27 -51
5z"/>
<path d="M3132 2353 l-22 -4 2 -592 3 -592 125 0 125 0 3 133 c2 105 5 132 17
132 7 0 15 -12 17 -27 2 -19 10 -29 28 -33 15 -4 26 -15 30 -30 4 -16 14 -26
28 -28 16 -2 22 -10 22 -28 0 -19 5 -24 25 -24 20 0 25 -5 25 -25 0 -20 5 -25
24 -25 17 0 26 -7 30 -25 l7 -26 112 3 112 3 0 35 c0 28 -4 36 -21 38 -12 2
-24 12 -27 23 -3 13 -14 19 -31 19 -21 0 -26 5 -26 25 0 20 -5 25 -24 25 -19
0 -25 6 -28 27 -2 20 -10 29 -28 33 -18 4 -26 13 -28 33 -3 21 -9 27 -28 27
-20 0 -24 5 -24 30 0 26 -4 30 -26 30 -23 0 -25 3 -22 38 2 30 7 38 26 40 16
3 22 10 22 28 0 19 5 24 24 24 19 0 25 6 28 28 2 21 9 28 31 30 21 3 27 9 27
28 0 19 5 24 25 24 20 0 27 6 32 30 4 23 11 30 29 30 19 0 24 5 24 25 0 20 5
25 25 25 24 0 25 3 25 55 0 50 -2 55 -22 56 -13 0 -63 2 -112 2 -88 2 -90 2
-96 -23 -4 -16 -14 -26 -28 -28 -15 -2 -22 -10 -22 -26 0 -18 -7 -25 -30 -29
-24 -5 -30 -12 -30 -32 0 -20 -5 -25 -24 -25 -19 0 -25 -6 -28 -27 -2 -20 -9
-29 -25 -31 -13 -2 -24 -13 -27 -28 -4 -14 -12 -24 -19 -21 -9 3 -13 86 -17
328 l-5 324 -105 1 c-58 1 -115 -1 -128 -3z"/>
<path d="M2780 2315 c0 -8 7 -15 15 -15 8 0 15 7 15 15 0 8 -7 15 -15 15 -8 0
-15 -7 -15 -15z"/>
<path d="M2843 2263 c-4 -10 -14 -23 -22 -30 -14 -11 -14 -15 -1 -40 33 -59
130 -32 114 31 -12 48 -77 75 -91 39z"/>
<path d="M3959 1843 c-26 -51 -31 -141 -9 -168 7 -8 9 -15 5 -15 -4 0 -2 -6 4
-14 9 -10 9 -20 0 -40 -7 -14 -16 -26 -21 -26 -4 0 -8 -8 -8 -18 0 -10 -5 -23
-11 -29 -19 -19 0 -33 44 -35 l42 -1 -44 -6 c-73 -10 -64 -31 13 -31 35 0 68
-4 71 -10 4 -6 -18 -10 -59 -10 -65 0 -88 -12 -67 -33 6 -6 11 -19 11 -29 0
-10 7 -21 15 -24 8 -4 15 -12 15 -19 0 -28 90 -95 127 -95 7 0 16 -7 19 -15 5
-13 34 -15 174 -15 99 0 171 4 175 10 3 5 23 17 43 26 47 22 132 108 132 134
0 11 5 20 10 20 6 0 10 9 10 20 0 18 -7 20 -75 20 -43 0 -75 4 -75 10 0 6 32
10 76 10 56 0 75 3 72 13 -3 6 -29 15 -59 18 l-54 6 53 1 c39 2 54 6 59 19 4
9 1 19 -5 21 -7 2 -12 11 -12 20 0 10 -9 28 -19 41 -19 24 -18 29 7 78 7 13
12 47 12 77 0 62 -33 136 -61 136 -27 0 -106 -49 -139 -87 -28 -32 -34 -34
-56 -24 -33 15 -146 14 -180 -1 -24 -11 -29 -9 -60 25 -32 37 -112 87 -138 87
-7 0 -24 -21 -37 -47z"/>
<path d="M2062 878 c4 -30 52 -37 79 -12 26 24 15 34 -37 34 -41 0 -45 -2 -42
-22z"/>
<path d="M2312 913 l3 -58 40 0 40 0 3 58 3 57 -46 0 -46 0 3 -57z"/>
<path d="M2904 957 c-3 -8 -4 -34 -2 -58 l3 -44 45 0 45 0 0 55 0 55 -43 3
c-30 2 -44 -1 -48 -11z"/>
<path d="M3150 910 l0 -60 45 0 45 0 0 60 0 60 -45 0 -45 0 0 -60z"/>
<path d="M3745 960 c-11 -19 6 -30 46 -30 32 0 39 3 39 20 0 17 -7 20 -39 20
-22 0 -43 -4 -46 -10z"/>
<path d="M57 3084 c-4 -4 -7 -25 -7 -46 l0 -38 96 0 95 0 -3 43 -3 42 -85 3
c-47 1 -89 0 -93 -4z"/>
<path d="M5600 3069 c-7 -11 -9 -32 -6 -45 6 -23 9 -24 100 -24 l94 0 4 29 c8
54 -4 61 -97 61 -75 0 -85 -2 -95 -21z"/>
<path d="M131 2951 c-12 -7 -13 -32 -8 -133 14 -281 108 -653 232 -920 28 -60
33 -66 52 -47 9 9 5 26 -14 68 -132 292 -217 650 -224 946 -3 95 -7 105 -38
86z"/>
<path d="M5670 2898 c0 -259 -83 -642 -200 -926 -39 -97 -45 -132 -20 -132 25
0 126 267 180 475 47 180 69 324 77 503 6 130 6 132 -15 132 -20 0 -22 -5 -22
-52z"/>
<path d="M357 1742 c-48 -48 -87 -91 -87 -95 0 -4 40 -49 89 -100 l90 -92 26
25 25 24 -43 45 c-23 25 -53 58 -67 74 l-24 27 64 65 c59 60 63 66 52 90 -6
14 -17 25 -24 25 -8 0 -53 -39 -101 -88z"/>
<path d="M5372 1810 c-12 -12 -22 -24 -22 -28 0 -4 27 -36 60 -72 l59 -64 -64
-67 c-36 -37 -65 -71 -65 -76 0 -11 33 -43 44 -43 4 0 48 40 99 90 l91 90 -25
27 c-13 14 -54 57 -90 95 l-65 68 -22 -20z"/>
<path d="M2895 277 c-3 -7 -5 -54 -3 -103 l3 -89 40 0 40 0 0 100 0 100 -38 3
c-25 2 -39 -1 -42 -11z"/>
</g>
</svg>
